<?xml version="1.0" encoding="iso-8859-1"?>
<!-- Uploaded to: SVG Repo, www.svgrepo.com, Generator: SVG Repo Mixer Tools -->
<!DOCTYPE svg PUBLIC "-//W3C//DTD SVG 1.1//EN" "http://www.w3.org/Graphics/SVG/1.1/DTD/svg11.dtd">
<svg fill="#000000" version="1.1" id="Capa_1" xmlns="http://www.w3.org/2000/svg" xmlns:xlink="http://www.w3.org/1999/xlink" 
	 width="800px" height="800px" viewBox="0 0 50 50" xml:space="preserve">
<g>
	<g>
		<path d="M15.894,18.356C12.02,29.402,4.941,50,4.941,50s10.873-12.492,18.717-21.578c-4.436-5.151-6.767-7.914-6.957-8.241
			C16.364,19.596,16.101,18.983,15.894,18.356z"/>
		<path d="M45.059,50c0,0-12.933-37.628-13.406-38.449c-1.014-1.757-2.627-2.94-4.43-3.476V2.224C27.223,0.996,26.228,0,25,0
			s-2.223,0.996-2.223,2.224v5.879c-0.522,0.165-1.035,0.375-1.528,0.66c-3.644,2.103-4.891,6.763-2.788,10.403
			C18.935,19.986,45.059,50,45.059,50z M25,12.311c1.962,0,3.553,1.591,3.553,3.554c0,1.963-1.591,3.553-3.553,3.553
			c-1.962,0-3.553-1.591-3.553-3.554C21.447,13.901,23.038,12.311,25,12.311z"/>
	</g>
</g>
</svg>